<svg width="121" height="24" viewBox="0 0 121 24" fill="none" xmlns="http://www.w3.org/2000/svg">
<path d="M7.06848 0.00650024H0.795532V9.00155H7.06848V0.00650024Z" fill="#1E1E1C"/>
<path d="M98.0923 0.00741577H91.8194V23.993H98.0923V0.00741577Z" fill="#1E1E1C"/>
<path d="M16.4911 0.00650024V12.0047H7.06848H6.46263H0.795532V23.9921H7.06848V18.0002H16.4911V23.9921H22.764V0.00650024H16.4911Z" fill="#1E1E1C"/>
<path d="M38.4334 0.00741577V18.0011H32.1642V0.00741577H25.8912V23.993H26.4482V23.9966H44.7101V23.993V18.0011V0.00741577H38.4334Z" fill="#1E1E1C"/>
<path d="M120.012 0.00741577H107.455H101.75H101.182V23.993H107.455V6.00292H120.012V0.00741577Z" fill="#1E1E1C"/>
<path d="M110.608 12.0018V17.9973H113.735V23.9928H120.012V17.9973V12.6312V12.0018H110.608Z" fill="#1E1E1C"/>
<path d="M66.6897 13.5303L66.6972 13.5232L66.6897 13.5196V13.5124H66.6822L64.5109 11.9838L65.5758 11.2321L66.6784 10.4553H66.6897V10.4481V4.56406L60.2248 0.00719317V0H60.2173L47.8821 0.0143863V24H66.6634H66.6972V13.5303H66.6897ZM60.4168 14.9942V18.0045H54.1513V14.9942H60.4168ZM58.1665 6.00629L60.2963 7.50607L58.1778 8.99865H54.1551V5.98471H58.1401L58.1665 6.00629Z" fill="#1E1E1C"/>
<path d="M88.662 13.5303L88.6696 13.5232L88.662 13.5196V13.5124H88.6545L86.4832 11.9838L88.6507 10.4553H88.662V10.4481V4.56406L82.1934 0.00719317V0H82.1859L69.8507 0.0143863V24H88.6319H88.6658V13.5303H88.662ZM82.3891 14.9942V18.0045H76.1237V14.9942H82.3891ZM80.135 6.00629L82.2649 7.50607L80.1463 8.99865H76.1237V5.98471H80.1087L80.135 6.00629Z" fill="#1E1E1C"/>
</svg>
